# xmcd
#
# Track frame offsets:
#	150
#	21096
#	50574
#	80158
#	103781
#	122906
#	139744
#	156654
#	186502
#	208975
#	233686
#	250439
#	274777
#	297294
#	321044
#	335634
#
# Disc length: 4790 seconds
#
# Revision: 1
# Processed by: cddbd v1.5.2PL0 Copyright (c) Steve Scherf et al.
# Submitted via: EasyCDDAExtractor 9.1.3.1
#
DISCID=0312b410
DTITLE=Sarah Main - Pure Pacha.Ibiza
DYEAR=2007
DGENRE=Electronic
TTITLE0=You - W.V.P. pres. DJ CEM ft. Tanja Danker
TTITLE1=Ride the storm - Carl Kennedy
TTITLE2=Love sick (Cagedbaby mix) - Nu Frequency ft. Plavka
TTITLE3=Eastern lights (Ran Shani mix) - Magik Johnson
TTITLE4=Shining in my vein (Spiritcatcher mix) - Scratch Massive
TTITLE5=Ape stalking (DJ Aleksij and Angel Anx Remix)  - Beginerz P. pres. Def E
TTITLE5=
TTITLE6=I love you - John Jacobsen
TTITLE7=Freak me (Andrea Dub Mix) - LXR Va. Andrea Doria
TTITLE8=One for all - Sarah  Main and The Cardinal Richelieu
TTITLE9=The others - TV Rock Vs. The dukes of Windsor
TTITLE10=I found you - Axwell 
TTITLE11=Follow me? - Ercola ft. Annie
TTITLE12=Tainted bass (Warped Bass remix Sharam's Blingy mix) - Richard Grey
TTITLE13=The duck - Black Mamba
TTITLE14=Jungle love - Bush To Bush
TTITLE15=Undisco me (Edision Dub) - Billie Ray Martin
EXTD=
EXTT0=
EXTT1=
EXTT2=
EXTT3=
EXTT4=
EXTT5=
EXTT6=
EXTT7=
EXTT8=
EXTT9=
EXTT10=
EXTT11=
EXTT12=
EXTT13=
EXTT14=
EXTT15=
PLAYORDER=
